<?xml version="1.0" encoding="iso-8859-1"?>
<!-- Generator: Adobe Illustrator 18.0.0, SVG Export Plug-In . SVG Version: 6.00 Build 0)  -->
<!DOCTYPE svg PUBLIC "-//W3C//DTD SVG 1.1//EN" "http://www.w3.org/Graphics/SVG/1.1/DTD/svg11.dtd">
<svg version="1.1" xmlns="http://www.w3.org/2000/svg" xmlns:xlink="http://www.w3.org/1999/xlink" x="0px" y="0px"
	 viewBox="0 0 30.8 56" style="enable-background:new 0 0 30.8 56;" xml:space="preserve">
<g id="cell-phones">
	<path style="fill:#003E6A;" d="M23.98,0H6.82C3.052,0,0,3.027,0,6.775v42.456C0,52.976,3.052,56,6.82,56h17.16
		c3.766,0,6.82-3.024,6.82-6.769V6.775C30.8,3.027,27.746,0,23.98,0 M12.25,3.15h6.3c0.654,0,1.4,0.116,1.4,1.05
		c0,0.929-0.746,1.05-1.4,1.05h-6.3c-0.655,0-1.4-0.121-1.4-1.05C10.85,3.266,11.595,3.15,12.25,3.15 M9.819,51.695
		c-0.119,0.651-0.564,1.123-1.018,1.043l-5.165-0.89c-0.441-0.069-0.713-0.662-0.61-1.312c0.124-0.655,0.566-1.109,1.022-1.041
		l5.166,0.882C9.67,50.465,9.944,51.043,9.819,51.695 M9.819,47.036C9.7,47.687,9.255,48.161,8.801,48.08l-5.165-0.886
		c-0.441-0.07-0.713-0.667-0.61-1.315c0.124-0.651,0.566-1.128,1.022-1.046l5.166,0.887C9.67,45.788,9.944,46.386,9.819,47.036
		 M9.819,42.234c-0.119,0.653-0.564,1.132-1.018,1.04l-5.165-0.879c-0.441-0.077-0.713-0.67-0.61-1.325
		c0.124-0.653,0.566-1.107,1.022-1.034l5.166,0.884C9.67,41.002,9.944,41.582,9.819,42.234 M17.946,53.383h-5.111
		c-0.473,0-0.856-0.561-0.856-1.266s0.383-1.265,0.856-1.265h5.111c0.469,0,0.876,0.56,0.876,1.265S18.415,53.383,17.946,53.383
		 M17.946,48.467h-5.111c-0.473,0-0.856-0.565-0.856-1.267s0.383-1.27,0.856-1.27h5.111c0.469,0,0.876,0.568,0.876,1.27
		S18.415,48.467,17.946,48.467 M11.979,41.388v-1.006c0-1.498,1.236-2.709,2.754-2.709h1.334c1.519,0,2.755,1.211,2.755,2.709v1.006
		c0,1.51-1.236,2.736-2.755,2.736h-1.334C13.215,44.124,11.979,42.898,11.979,41.388 M27.072,51.848l-5.164,0.89
		c-0.439,0.08-0.904-0.392-1.023-1.043c-0.102-0.652,0.171-1.23,0.611-1.318l5.183-0.882c0.441-0.068,0.882,0.386,0.998,1.041
		C27.798,51.186,27.531,51.779,27.072,51.848 M27.072,47.195l-5.164,0.885c-0.439,0.081-0.904-0.393-1.023-1.044
		c-0.102-0.649,0.171-1.246,0.611-1.316l5.183-0.885c0.441-0.084,0.882,0.393,0.998,1.044
		C27.798,46.527,27.531,47.124,27.072,47.195 M27.072,42.653l-5.164,0.881c-0.439,0.09-0.904-0.388-1.023-1.042
		c-0.102-0.653,0.171-1.244,0.611-1.312l5.183-0.886c0.441-0.085,0.882,0.383,0.998,1.036
		C27.798,41.983,27.531,42.565,27.072,42.653 M27.3,34.576c0,0,0.29,1.693-1.475,2.246c-1.224,0.385-3.165,0.908-5.79,1.29
		c-0.357-1.653-2.456-2.876-4.243-2.876h-0.876c-1.765,0-3.981,1.169-4.364,2.809c-2.567-0.408-4.213-0.818-5.416-1.221
		C3.425,36.269,3.5,34.576,3.5,34.576V10.179C3.5,9.191,4.135,8.4,5.136,8.4h20.529c0.552,0,1.635,0.443,1.635,1.779V34.576z"/>
</g>
<g id="Layer_1">
</g>
</svg>
