<?xml version="1.0" encoding="iso-8859-1"?>
<!-- Generator: Adobe Illustrator 18.0.0, SVG Export Plug-In . SVG Version: 6.00 Build 0)  -->
<!DOCTYPE svg PUBLIC "-//W3C//DTD SVG 1.1//EN" "http://www.w3.org/Graphics/SVG/1.1/DTD/svg11.dtd">
<svg version="1.1" xmlns="http://www.w3.org/2000/svg" xmlns:xlink="http://www.w3.org/1999/xlink" x="0px" y="0px"
	 viewBox="0 0 60.454 48" style="enable-background:new 0 0 60.454 48;" xml:space="preserve">
<g id="dslr-cameras">
	<path style="fill:#003E6A;" d="M46.053,28.023c0,4.551-3.7,8.253-8.251,8.253c-4.556,0-8.254-3.702-8.254-8.253
		c0-4.56,3.698-8.253,8.254-8.253C42.353,19.77,46.053,23.463,46.053,28.023 M46.33,36.551c2.184-2.188,3.532-5.192,3.533-8.528
		c-0.001-3.339-1.347-6.34-3.533-8.529c-2.189-2.184-5.189-3.53-8.528-3.531c-3.342,0.001-6.342,1.347-8.529,3.531
		c-2.187,2.189-3.531,5.19-3.536,8.529c0.005,3.336,1.349,6.34,3.536,8.528c2.187,2.187,5.187,3.532,8.529,3.535
		C41.141,40.083,44.141,38.738,46.33,36.551 M53.946,28.023c-0.004,8.917-7.226,16.142-16.144,16.142
		c-8.922,0-16.145-7.225-16.145-16.142c0-8.915,7.223-16.142,16.145-16.142C46.72,11.881,53.942,19.108,53.946,28.023
		 M21.899,14.518c0,0.969-0.786,1.756-1.756,1.756c-0.972,0-1.758-0.787-1.758-1.756c0-0.971,0.786-1.757,1.758-1.757
		C21.113,12.761,21.899,13.547,21.899,14.518 M60.454,19.391c-0.119-5.911-8.427-9.001-9.289-9.518
		c-0.391-0.235-1.047-0.705-1.92-2.084c-0.539-0.852-2.628-5.145-2.628-5.145s-0.768-2.143-3.16-2.326
		C42.26,0.226,39.972,0,37.682,0c-2.289,0-4.578,0.226-5.775,0.318c-2.392,0.183-3.159,2.326-3.159,2.326s-2.097,3.951-2.636,4.803
		c-0.874,1.379-1.849,1.321-1.849,1.321c-0.052,0-0.902,0.105-2.252,0.287c0.005-0.081,0.003-0.16-0.01-0.242l-0.236-1.584
		c-0.101-0.67-0.775-1.128-1.505-1.019l-8.547,1.277c-0.732,0.111-1.243,0.743-1.142,1.414l0.237,1.584
		c0.014,0.095,0.043,0.184,0.077,0.27c-1.941,0.338-3.845,0.697-5.516,1.062c-3.401,0.742-5.406,4.626-5.368,8.265
		c0.03,2.743,0.119,23.696,0.119,23.696c0,1.701,1.377,3.077,3.077,3.077h8.188c0.031,0.001,0.06,0.01,0.092,0.01h3.785
		c1.084,0,2.03-0.562,2.58-1.407h10.207C30.934,47.075,34.258,48,37.802,48c3.542,0,6.867-0.925,9.75-2.542h9.376
		c1.699,0,3.422-1.032,3.422-2.731L60.454,19.391z"/>
</g>
<g id="Layer_1">
</g>
</svg>
