<?xml version="1.0" encoding="iso-8859-1"?>
<!-- Generator: Adobe Illustrator 18.0.0, SVG Export Plug-In . SVG Version: 6.00 Build 0)  -->
<!DOCTYPE svg PUBLIC "-//W3C//DTD SVG 1.1//EN" "http://www.w3.org/Graphics/SVG/1.1/DTD/svg11.dtd">
<svg version="1.1" xmlns="http://www.w3.org/2000/svg" xmlns:xlink="http://www.w3.org/1999/xlink" x="0px" y="0px"
	 viewBox="0 0 62.434 56" style="enable-background:new 0 0 62.434 56;" xml:space="preserve">
<g id="headphones">
	<path style="fill:#003E6A;" d="M46.667,32.848v18.575c0,2.507,2.041,4.546,4.549,4.546c2.507,0,4.55-2.039,4.55-4.546v-0.701
		c1.553-0.001,2.815-1.264,2.815-2.813V36.415c0-1.552-1.262-2.815-2.815-2.816v-0.751c0-2.508-2.043-4.55-4.55-4.55
		C48.708,28.298,46.667,30.34,46.667,32.848 M3.859,36.415v11.494c0,1.55,1.262,2.813,2.813,2.813h0.002V51.5
		c0,2.481,2.019,4.5,4.5,4.5c2.484,0,4.505-2.019,4.505-4.5V33.117c0-2.482-2.021-4.504-4.505-4.504c-2.481,0-4.5,2.022-4.5,4.504
		v0.482H6.673C5.121,33.599,3.859,34.863,3.859,36.415 M62.434,30.933c0-0.118-0.008-0.233-0.01-0.352
		c0.004-0.116,0.007-0.235,0.01-0.354h-0.019c-0.2-7.56-3.562-14.406-8.918-19.449c0.481-1.312,0.083-2.836-1.087-3.73
		C46.464,2.504,38.936,0,31.217,0C23.536,0,16.04,2.48,10.109,6.984C8.937,7.871,8.532,9.396,9.01,10.709
		c-5.402,5.046-8.791,11.925-8.991,19.518C0.013,30.462,0,30.696,0,30.933v11.849c0,0.633,0.512,1.147,1.145,1.147
		c0.633,0,1.148-0.514,1.148-1.147V30.933c0-0.237,0.012-0.471,0.019-0.706c0.198-6.901,3.279-13.154,8.187-17.775
		c1.101,0.609,2.501,0.559,3.569-0.254c4.8-3.643,10.889-5.651,17.149-5.651c6.291,0,12.405,2.026,17.218,5.701
		c0.594,0.457,1.292,0.676,1.983,0.676c0.552,0,1.098-0.142,1.585-0.408c4.943,4.685,8.018,11.033,8.13,18.027
		c-0.005,0.129-0.011,0.26-0.011,0.39v11.849c0,0.633,0.512,1.147,1.145,1.147c0.632,0,1.148-0.514,1.148-1.147v-2.265h0.019V30.933
		z"/>
</g>
<g id="Layer_1">
</g>
</svg>
