<?xml version="1.0" encoding="iso-8859-1"?>
<!-- Generator: Adobe Illustrator 18.0.0, SVG Export Plug-In . SVG Version: 6.00 Build 0)  -->
<!DOCTYPE svg PUBLIC "-//W3C//DTD SVG 1.1//EN" "http://www.w3.org/Graphics/SVG/1.1/DTD/svg11.dtd">
<svg version="1.1" xmlns="http://www.w3.org/2000/svg" xmlns:xlink="http://www.w3.org/1999/xlink" x="0px" y="0px"
	 viewBox="0 0 80 34.99" style="enable-background:new 0 0 80 34.99;" xml:space="preserve">
<g id="home-theatre">
	<path style="fill:#003E6A;" d="M9.025,4.648c0-1.377-1.108-2.484-2.483-2.484c-1.366,0-2.482,1.107-2.482,2.484
		c0,1.37,1.116,2.487,2.482,2.487C7.917,7.135,9.025,6.018,9.025,4.648 M1.96,19.605C0.879,19.605,0,18.73,0,17.65V1.991
		c0-1.084,0.879-1.967,1.96-1.967h9.165c1.087,0,1.964,0.883,1.964,1.967V17.65c0,1.08-0.877,1.955-1.964,1.955H1.96z
		 M10.962,12.467c0-2.439-1.98-4.416-4.42-4.416c-2.436,0-4.414,1.977-4.414,4.416c0,2.438,1.978,4.414,4.414,4.414
		C8.982,16.881,10.962,14.905,10.962,12.467 M75.936,4.648c0-1.377-1.108-2.484-2.483-2.484c-1.366,0-2.483,1.107-2.483,2.484
		c0,1.37,1.117,2.487,2.483,2.487C74.828,7.135,75.936,6.018,75.936,4.648 M68.871,19.605c-1.082,0-1.96-0.875-1.96-1.955V1.991
		c0-1.084,0.878-1.967,1.96-1.967h9.165C79.123,0.024,80,0.907,80,1.991V17.65c0,1.08-0.877,1.955-1.964,1.955H68.871z
		 M77.874,12.467c0-2.439-1.982-4.416-4.421-4.416c-2.435,0-4.415,1.977-4.415,4.416c0,2.438,1.98,4.414,4.415,4.414
		C75.892,16.881,77.874,14.905,77.874,12.467 M51.236,34.99H28.985l0.855-1.373h8.511v-1.446H17.147
		c-0.842,0-1.526-0.687-1.526-1.527V1.528C15.621,0.685,16.305,0,17.147,0h45.929c0.842,0,1.527,0.685,1.527,1.528v29.116
		c0,0.84-0.685,1.527-1.527,1.527H41.872v1.446h8.511L51.236,34.99z M18.531,2.658c-0.174,0-0.316,0.142-0.316,0.315v25.058
		c0,0.177,0.142,0.317,0.316,0.317h43.161c0.176,0,0.316-0.14,0.316-0.317V2.973c0-0.173-0.14-0.315-0.316-0.315H18.531z"/>
</g>
<g id="Layer_1">
</g>
</svg>
