<?xml version="1.0" encoding="iso-8859-1"?>
<!-- Generator: Adobe Illustrator 18.0.0, SVG Export Plug-In . SVG Version: 6.00 Build 0)  -->
<!DOCTYPE svg PUBLIC "-//W3C//DTD SVG 1.1//EN" "http://www.w3.org/Graphics/SVG/1.1/DTD/svg11.dtd">
<svg version="1.1" xmlns="http://www.w3.org/2000/svg" xmlns:xlink="http://www.w3.org/1999/xlink" x="0px" y="0px"
	 viewBox="0 0 29.355 56" style="enable-background:new 0 0 29.355 56;" xml:space="preserve">
<g id="musical-instruments">
	<path style="fill:#003E6A;" d="M23.375,17.532c-0.076-1.922,2.158-4.157,4.08-6.47l-0.012-0.015c1.181-1.17,1.912-2.792,1.912-4.59
		C29.355,2.893,26.464,0,22.898,0c-1.755,0-3.344,0.701-4.512,1.837l-0.015-0.015c-1.844,1.384-3.538,5.467-3.538,5.467
		l-0.772,2.392c-0.4-0.206-0.742-0.41-0.875-0.549c-0.424-0.437-0.357-1.671-1.204-2.034c-0.818-0.357-1.896-0.238-2.576,1.195
		L9.385,8.285C9.377,8.31,9.38,8.329,9.37,8.355C9.359,8.374,9.347,8.379,9.337,8.401l0.017,0.006
		c-0.573,1.483,0.083,2.345,0.901,2.7c0.846,0.362,1.694-0.532,2.309-0.52c0.209,0,0.641,0.128,1.109,0.294l-1.955,6.051
		c-0.536-0.269-1.032-0.541-1.198-0.718c-0.424-0.439-0.362-1.667-1.202-2.036c-0.825-0.354-1.904-0.236-2.58,1.197l-0.019-0.007
		c-0.01,0.025-0.007,0.041-0.018,0.063c-0.011,0.022-0.022,0.031-0.03,0.053l0.016,0.007c-0.578,1.478,0.077,2.346,0.903,2.697
		c0.842,0.366,1.691-0.528,2.306-0.519c0.258,0,0.85,0.192,1.452,0.419L9.474,23.88c-0.43-0.221-0.802-0.436-0.943-0.586
		c-0.427-0.441-0.36-1.664-1.207-2.031c-0.823-0.361-1.902-0.242-2.574,1.194L4.727,22.45c-0.01,0.022-0.005,0.039-0.014,0.061
		c-0.008,0.023-0.022,0.03-0.03,0.051L4.7,22.569c-0.58,1.479,0.075,2.349,0.899,2.699c0.841,0.369,1.692-0.529,2.307-0.521
		c0.217,0.006,0.684,0.147,1.188,0.324l-1.896,5.862c-0.403-0.21-0.748-0.417-0.884-0.556c-0.429-0.441-0.359-1.672-1.204-2.037
		c-0.821-0.356-1.903-0.238-2.581,1.198l-0.018-0.005c-0.007,0.019-0.004,0.031-0.012,0.052c-0.01,0.021-0.027,0.034-0.038,0.058
		l0.023,0.009c-0.582,1.478,0.075,2.342,0.895,2.699c0.847,0.362,1.695-0.532,2.308-0.523c0.211,0.001,0.645,0.132,1.125,0.302
		L4.916,38c-0.394-0.208-0.73-0.406-0.86-0.543c-0.43-0.438-0.362-1.668-1.207-2.034c-0.823-0.352-1.905-0.239-2.584,1.202
		L0.25,36.616c-0.009,0.023-0.005,0.035-0.013,0.056c-0.008,0.024-0.023,0.03-0.033,0.052l0.018,0.006
		c-0.585,1.481,0.079,2.345,0.896,2.701c0.85,0.361,1.698-0.531,2.313-0.522c0.205,0,0.631,0.13,1.098,0.293l-0.863,2.666
		c0,0-0.309,0.609-0.459,1.772c-0.155,1.158,0.9,2.108,1.517,2.725l2.124,2.318V56h1.856V41.692
		c-0.644-0.153-1.121-0.729-1.121-1.423c0-0.806,0.653-1.465,1.459-1.465c0.812,0,1.465,0.659,1.465,1.465
		c0,0.694-0.481,1.27-1.124,1.423V56h1.773V34.716c-0.644-0.153-1.125-0.731-1.125-1.424c0-0.807,0.655-1.463,1.463-1.463
		c0.808,0,1.462,0.656,1.462,1.463c0,0.693-0.477,1.271-1.124,1.424V56h1.772V27.735c-0.644-0.152-1.125-0.732-1.125-1.422
		c0-0.81,0.657-1.464,1.463-1.464c0.811,0,1.463,0.654,1.463,1.464c0,0.69-0.479,1.27-1.122,1.422V56h1.771V20.757
		c-0.646-0.156-1.125-0.733-1.125-1.423c0-0.81,0.655-1.463,1.461-1.463c0.812,0,1.463,0.653,1.463,1.463
		c0,0.69-0.48,1.267-1.124,1.423V56h1.775V13.777c-0.642-0.157-1.125-0.733-1.125-1.425c0-0.807,0.653-1.463,1.465-1.463
		c0.809,0,1.462,0.656,1.462,1.463c0,0.692-0.48,1.268-1.128,1.425V56h1.903V45.607c0,0-0.207-2.337,3.375-4.744
		c4.502-3.025,3.23-5.44,2.322-8.729C26.195,30.018,23.375,17.532,23.375,17.532"/>
</g>
<g id="Layer_1">
</g>
</svg>
